<svg version="1.1" xmlns="http://www.w3.org/2000/svg" xmlns:xlink="http://www.w3.org/1999/xlink" width="81.4099" height="102.35304" viewBox="0,0,81.4099,102.35304"><defs><radialGradient cx="227.17828" cy="189.17667" r="27.61744" gradientUnits="userSpaceOnUse" id="color-1"><stop offset="0" stop-color="#ff0000"/><stop offset="1" stop-color="#ff0000" stop-opacity="0"/></radialGradient><radialGradient cx="252.82173" cy="188.91728" r="27.61743" gradientUnits="userSpaceOnUse" id="color-2"><stop offset="0" stop-color="#ff0000"/><stop offset="1" stop-color="#ff0000" stop-opacity="0"/></radialGradient></defs><g transform="translate(-199.02925,-128.82286)"><g data-paper-data="{&quot;isPaintingLayer&quot;:true}" fill-rule="nonzero" stroke-linejoin="miter" stroke-miterlimit="10" stroke-dasharray="" stroke-dashoffset="0" style="mix-blend-mode: normal"><path d="M222.13379,178.04864l-12.25444,-41.3043" fill="none" stroke="#000000" stroke-width="4" stroke-linecap="round"/><path d="M272.594,193.32043c0.19834,19.6096 -15.09599,35.66263 -34.16088,35.85548c-19.06487,0.19284 -34.68081,-15.54754 -34.87916,-35.15714c-0.19834,-19.60959 15.09599,-35.66263 34.16088,-35.85547c19.06488,-0.19284 34.68082,15.54753 34.87917,35.15713z" fill="#858585" stroke="#000000" stroke-width="4" stroke-linecap="butt"/><path d="M237.69535,188.7415c0.05877,5.81025 -4.60374,10.56801 -10.41398,10.62679c-5.81025,0.05877 -10.56801,-4.60373 -10.62679,-10.41398c-0.05877,-5.81025 4.60373,-10.56802 10.41398,-10.6268c5.81025,-0.05877 10.56802,4.60374 10.6268,10.41398z" fill="#ff0000" stroke="#000000" stroke-width="4" stroke-linecap="butt"/><path d="M254.79431,188.89733c0.15243,15.07034 -12.08811,27.41232 -27.34002,27.56659c-15.2519,0.15428 -27.7396,-11.93758 -27.89203,-27.00792c-0.15243,-15.07033 12.08811,-27.41232 27.34002,-27.5666c15.2519,-0.15428 27.73959,11.93759 27.89203,27.00792z" fill="url(#color-1)" stroke="none" stroke-width="0" stroke-linecap="butt"/><path d="M263.33878,188.4821c0.05877,5.81025 -4.60372,10.56804 -10.41397,10.62681c-5.81025,0.05877 -10.56802,-4.60374 -10.6268,-10.41398c-0.05877,-5.81025 4.60372,-10.56802 10.41397,-10.6268c5.81024,-0.05877 10.56802,4.60372 10.6268,10.41397z" fill="#ff0000" stroke="#000000" stroke-width="4" stroke-linecap="butt"/><path d="M280.43775,188.63795c0.15244,15.07034 -12.0881,27.41232 -27.34,27.56659c-15.2519,0.15428 -27.73961,-11.93757 -27.89204,-27.00791c-0.15243,-15.07033 12.08811,-27.41232 27.34002,-27.5666c15.25191,-0.15428 27.73959,11.93759 27.89202,27.00792z" fill="url(#color-2)" stroke="none" stroke-width="0" stroke-linecap="butt"/><path d="M219.52212,139.26451c0.04767,4.71384 -4.05345,8.57706 -9.1601,8.6287c-5.10666,0.05165 -9.28509,-3.7278 -9.33276,-8.44164c-0.04767,-4.71384 4.05345,-8.57706 9.1601,-8.62869c5.10666,-0.05165 9.28509,3.7278 9.33276,8.44164z" fill="#000000" stroke="#000000" stroke-width="4" stroke-linecap="butt"/></g></g></svg>