<svg version="1.1" xmlns="http://www.w3.org/2000/svg" xmlns:xlink="http://www.w3.org/1999/xlink" width="517.51351" height="423.76507" viewBox="0,0,517.51351,423.76507"><defs><radialGradient cx="97.18401" cy="192.57338" r="7.41712" gradientUnits="userSpaceOnUse" id="color-1"><stop offset="0" stop-color="#ff0000"/><stop offset="1" stop-color="#ff0000" stop-opacity="0"/></radialGradient><radialGradient cx="103.5383" cy="189.91661" r="7.41712" gradientUnits="userSpaceOnUse" id="color-2"><stop offset="0" stop-color="#ff0000"/><stop offset="1" stop-color="#ff0000" stop-opacity="0"/></radialGradient><radialGradient cx="220.80263" cy="5.38119" r="7.41712" gradientUnits="userSpaceOnUse" id="color-3"><stop offset="0" stop-color="#ff0000"/><stop offset="1" stop-color="#ff0000" stop-opacity="0"/></radialGradient><radialGradient cx="227.15692" cy="2.72442" r="7.41711" gradientUnits="userSpaceOnUse" id="color-4"><stop offset="0" stop-color="#ff0000"/><stop offset="1" stop-color="#ff0000" stop-opacity="0"/></radialGradient><radialGradient cx="195.7726" cy="355.72654" r="7.41712" gradientUnits="userSpaceOnUse" id="color-5"><stop offset="0" stop-color="#ff0000"/><stop offset="1" stop-color="#ff0000" stop-opacity="0"/></radialGradient><radialGradient cx="202.12689" cy="353.06977" r="7.41711" gradientUnits="userSpaceOnUse" id="color-6"><stop offset="0" stop-color="#ff0000"/><stop offset="1" stop-color="#ff0000" stop-opacity="0"/></radialGradient><radialGradient cx="179.30734" cy="202.22351" r="7.24315" gradientUnits="userSpaceOnUse" id="color-7"><stop offset="0" stop-color="#ff0000"/><stop offset="1" stop-color="#ff0000" stop-opacity="0"/></radialGradient><radialGradient cx="186.03278" cy="202.15548" r="7.24315" gradientUnits="userSpaceOnUse" id="color-8"><stop offset="0" stop-color="#ff0000"/><stop offset="1" stop-color="#ff0000" stop-opacity="0"/></radialGradient><radialGradient cx="62.68572" cy="18.03432" r="7.24316" gradientUnits="userSpaceOnUse" id="color-9"><stop offset="0" stop-color="#ff0000"/><stop offset="1" stop-color="#ff0000" stop-opacity="0"/></radialGradient><radialGradient cx="69.41116" cy="17.96629" r="7.24315" gradientUnits="userSpaceOnUse" id="color-10"><stop offset="0" stop-color="#ff0000"/><stop offset="1" stop-color="#ff0000" stop-opacity="0"/></radialGradient><radialGradient cx="87.20524" cy="147.65894" r="7.24316" gradientUnits="userSpaceOnUse" id="color-11"><stop offset="0" stop-color="#ff0000"/><stop offset="1" stop-color="#ff0000" stop-opacity="0"/></radialGradient><radialGradient cx="93.93068" cy="147.59091" r="7.24315" gradientUnits="userSpaceOnUse" id="color-12"><stop offset="0" stop-color="#ff0000"/><stop offset="1" stop-color="#ff0000" stop-opacity="0"/></radialGradient></defs><g transform="translate(10.68243,22.54585)"><g data-paper-data="{&quot;isPaintingLayer&quot;:true}" fill-rule="nonzero" stroke-linejoin="miter" stroke-miterlimit="10" stroke-dasharray="" stroke-dashoffset="0" style="mix-blend-mode: normal"><path d="M-8.68243,376.6967v-388.88889h513.51351v388.88889z" fill="#676767" stroke="#000000" stroke-width="4" stroke-linecap="butt"/><path d="M63.38964,399.21922v-346.84685h34.53453v346.84685z" fill="#8d8d8d" stroke="#000000" stroke-width="4" stroke-linecap="butt"/><path d="M211.03228,398.21321v-346.84685h34.53454v346.84685z" fill="#8d8d8d" stroke="#000000" stroke-width="4" stroke-linecap="butt"/><path d="M40.86712,67.38739v-34.53453h228.22823v34.53453z" fill="#8d8d8d" stroke="#000000" stroke-width="4" stroke-linecap="butt"/><path d="M39.86111,254.06907v-34.53453h228.22823v34.53453z" fill="#8d8d8d" stroke="#000000" stroke-width="4" stroke-linecap="butt"/><path d="M54.40668,218.56757v-51.92123h78.23747v51.92123z" fill="#ffffff" stroke="#000000" stroke-width="4" stroke-linecap="butt"/><path d="M40.18168,218.56757v-51.92123h12.09125v51.92123z" fill="#dedede" stroke="#000000" stroke-width="4" stroke-linecap="butt"/><path d="M94.80397,190.31448l-7.22445,-9.0384" fill="none" stroke="#000000" stroke-width="4" stroke-linecap="round"/><path d="M108.90306,189.01345c2.03164,4.85913 -0.15108,10.39945 -4.87523,12.37465c-4.72415,1.9752 -10.2008,-0.36269 -12.23244,-5.22181c-2.03164,-4.85913 0.15108,-10.39945 4.87523,-12.37465c4.72415,-1.9752 10.2008,0.36269 12.23244,5.22181z" fill="#858585" stroke="#000000" stroke-width="4" stroke-linecap="butt"/><path d="M99.75684,191.40196c0.60197,1.43974 -0.07718,3.09488 -1.51692,3.69684c-1.43974,0.60197 -3.09488,-0.07718 -3.69684,-1.51692c-0.60197,-1.43974 0.07718,-3.09488 1.51692,-3.69684c1.43974,-0.60197 3.09488,0.07718 3.69684,1.51692z" fill="#ff0000" stroke="#000000" stroke-width="4" stroke-linecap="butt"/><path d="M104.02708,189.71224c1.56135,3.73433 -0.23668,8.04258 -4.01599,9.62274c-3.77932,1.58016 -8.10879,-0.16614 -9.67014,-3.90047c-1.56135,-3.73433 0.23668,-8.04258 4.01599,-9.62274c3.77932,-1.58016 8.10879,0.16614 9.67014,3.90047z" fill="url(#color-1)" stroke="none" stroke-width="0" stroke-linecap="butt"/><path d="M106.11112,188.74519c0.60197,1.43974 -0.07718,3.09488 -1.51692,3.69684c-1.43974,0.60197 -3.09488,-0.07718 -3.69684,-1.51692c-0.60197,-1.43974 0.07718,-3.09488 1.51692,-3.69684c1.43974,-0.60197 3.09488,0.07718 3.69684,1.51692z" fill="#ff0000" stroke="#000000" stroke-width="4" stroke-linecap="butt"/><path d="M110.38137,187.05547c1.56135,3.73433 -0.23668,8.04258 -4.01599,9.62274c-3.77932,1.58016 -8.10879,-0.16614 -9.67014,-3.90046c-1.56135,-3.73433 0.23667,-8.04258 4.01599,-9.62274c3.77932,-1.58016 8.10879,0.16614 9.67014,3.90047z" fill="url(#color-2)" stroke="none" stroke-width="0" stroke-linecap="butt"/><path d="M90.23355,180.92838c0.48837,1.16806 -0.14153,2.54386 -1.40693,3.07293c-1.2654,0.52907 -2.68711,0.01107 -3.17549,-1.15699c-0.48837,-1.16806 0.14153,-2.54386 1.40693,-3.07293c1.2654,-0.52907 2.68711,-0.01107 3.17549,1.15699z" fill="#000000" stroke="#000000" stroke-width="4" stroke-linecap="butt"/><text transform="translate(56.54043,175.41328) scale(0.21223,0.21223)" font-size="40" xml:space="preserve" fill="#000000" fill-rule="nonzero" stroke="none" stroke-width="1" stroke-linecap="butt" stroke-linejoin="miter" stroke-miterlimit="10" stroke-dasharray="" stroke-dashoffset="0" font-family="Sans Serif" font-weight="normal" text-anchor="start" style="mix-blend-mode: normal"><tspan x="0" dy="0">ping pong buddy!</tspan></text><path d="M178.02529,31.37538v-51.92123h78.23747v51.92123z" fill="#ffffff" stroke="#000000" stroke-width="4" stroke-linecap="butt"/><path d="M163.8003,31.37538v-51.92123h12.09125v51.92123z" fill="#dedede" stroke="#000000" stroke-width="4" stroke-linecap="butt"/><path d="M211.19814,-5.91612l7.22444,9.03841" fill="none" stroke="#000000" stroke-width="4" stroke-linecap="round"/><path d="M232.52167,1.82126c2.03163,4.85913 -0.15108,10.39944 -4.87523,12.37465c-4.72415,1.9752 -10.2008,-0.36268 -12.23244,-5.22181c-2.03163,-4.85913 0.15108,-10.39945 4.87523,-12.37465c4.72415,-1.9752 10.2008,0.36269 12.23243,5.22181z" fill="#858585" stroke="#000000" stroke-width="4" stroke-linecap="butt"/><path d="M223.37546,4.20976c0.60197,1.43974 -0.07719,3.09488 -1.51693,3.69685c-1.43974,0.60197 -3.09488,-0.07719 -3.69684,-1.51693c-0.60197,-1.43974 0.07719,-3.09488 1.51693,-3.69684c1.43974,-0.60197 3.09488,0.07718 3.69684,1.51692z" fill="#ff0000" stroke="#000000" stroke-width="4" stroke-linecap="butt"/><path d="M227.6457,2.52005c1.56135,3.73433 -0.23667,8.04258 -4.016,9.62274c-3.77932,1.58016 -8.10879,-0.16614 -9.67014,-3.90047c-1.56135,-3.73433 0.23667,-8.04258 4.016,-9.62274c3.77933,-1.58016 8.1088,0.16614 9.67015,3.90047z" fill="url(#color-3)" stroke="none" stroke-width="0" stroke-linecap="butt"/><path d="M229.72973,1.553c0.60197,1.43974 -0.07718,3.09487 -1.51692,3.69684c-1.43974,0.60197 -3.09487,-0.07718 -3.69684,-1.51692c-0.60197,-1.43974 0.07718,-3.09488 1.51692,-3.69684c1.43974,-0.60197 3.09487,0.07719 3.69684,1.51693z" fill="#ff0000" stroke="#000000" stroke-width="4" stroke-linecap="butt"/><path d="M233.99998,-0.13672c1.56135,3.73433 -0.23667,8.04258 -4.01599,9.62274c-3.77933,1.58016 -8.1088,-0.16614 -9.67015,-3.90046c-1.56135,-3.73433 0.23667,-8.04258 4.016,-9.62274c3.77933,-1.58016 8.10879,0.16614 9.67014,3.90047z" fill="url(#color-4)" stroke="none" stroke-width="0" stroke-linecap="butt"/><path d="M213.85217,-6.26381c0.48837,1.16806 -0.14153,2.54386 -1.40693,3.07292c-1.2654,0.52907 -2.68711,0.01107 -3.17549,-1.15699c-0.48838,-1.16806 0.14153,-2.54386 1.40693,-3.07292c1.2654,-0.52907 2.68711,-0.01107 3.17549,1.15699z" fill="#000000" stroke="#000000" stroke-width="4" stroke-linecap="butt"/><text transform="translate(180.15904,-11.77891) scale(0.21223,0.21223)" font-size="40" xml:space="preserve" fill="#000000" fill-rule="nonzero" stroke="none" stroke-width="1" stroke-linecap="butt" stroke-linejoin="miter" stroke-miterlimit="10" stroke-dasharray="" stroke-dashoffset="0" font-family="Sans Serif" font-weight="normal" text-anchor="start" style="mix-blend-mode: normal"><tspan x="0" dy="0">ping pong buddy!</tspan></text><path d="M152.99526,381.72073v-51.92123h78.23747v51.92123z" fill="#ffffff" stroke="#000000" stroke-width="4" stroke-linecap="butt"/><path d="M138.77027,381.72073v-51.92123h12.09125v51.92123z" fill="#dedede" stroke="#000000" stroke-width="4" stroke-linecap="butt"/><path d="M193.39255,353.46764l-7.22445,-9.03841" fill="none" stroke="#000000" stroke-width="4" stroke-linecap="round"/><path d="M207.49164,352.16661c2.03163,4.85913 -0.15108,10.39944 -4.87523,12.37464c-4.72415,1.97521 -10.2008,-0.36268 -12.23244,-5.22181c-2.03163,-4.85913 0.15108,-10.39944 4.87523,-12.37465c4.72415,-1.9752 10.2008,0.36269 12.23243,5.22181z" fill="#858585" stroke="#000000" stroke-width="4" stroke-linecap="butt"/><path d="M198.34543,354.55511c0.60197,1.43974 -0.07719,3.09488 -1.51693,3.69684c-1.43974,0.60197 -3.09487,-0.07719 -3.69684,-1.51692c-0.60197,-1.43974 0.07718,-3.09488 1.51692,-3.69685c1.43974,-0.60196 3.09488,0.07718 3.69684,1.51693z" fill="#ff0000" stroke="#000000" stroke-width="4" stroke-linecap="butt"/><path d="M202.61567,352.8654c1.56135,3.73433 -0.23667,8.04258 -4.016,9.62274c-3.77932,1.58016 -8.10879,-0.16614 -9.67014,-3.90047c-1.56135,-3.73433 0.23667,-8.04258 4.016,-9.62274c3.77933,-1.58016 8.10879,0.16614 9.67014,3.90047z" fill="url(#color-5)" stroke="none" stroke-width="0" stroke-linecap="butt"/><path d="M204.6997,351.89835c0.60197,1.43974 -0.07719,3.09488 -1.51693,3.69684c-1.43974,0.60197 -3.09487,-0.07719 -3.69684,-1.51693c-0.60197,-1.43974 0.07718,-3.09488 1.51692,-3.69684c1.43974,-0.60197 3.09488,0.07719 3.69684,1.51693z" fill="#ff0000" stroke="#000000" stroke-width="4" stroke-linecap="butt"/><path d="M208.96995,350.20863c1.56135,3.73433 -0.23667,8.04258 -4.01599,9.62274c-3.77932,1.58016 -8.10879,-0.16614 -9.67014,-3.90047c-1.56135,-3.73433 0.23667,-8.04258 4.016,-9.62274c3.77933,-1.58016 8.10879,0.16614 9.67014,3.90047z" fill="url(#color-6)" stroke="none" stroke-width="0" stroke-linecap="butt"/><path d="M188.82214,344.08154c0.48837,1.16805 -0.14153,2.54385 -1.40693,3.07292c-1.2654,0.52907 -2.68711,0.01106 -3.17549,-1.15699c-0.48837,-1.16805 0.14153,-2.54386 1.40693,-3.07293c1.2654,-0.52907 2.68711,-0.01106 3.17549,1.15699z" fill="#000000" stroke="#000000" stroke-width="4" stroke-linecap="butt"/><text transform="translate(155.12901,338.56644) scale(0.21223,0.21223)" font-size="40" xml:space="preserve" fill="#000000" fill-rule="nonzero" stroke="none" stroke-width="1" stroke-linecap="butt" stroke-linejoin="miter" stroke-miterlimit="10" stroke-dasharray="" stroke-dashoffset="0" font-family="Sans Serif" font-weight="normal" text-anchor="start" style="mix-blend-mode: normal"><tspan x="0" dy="0">ping pong buddy!</tspan></text><path d="M165.49174,217.53754v-35.44154h32.29118v35.44154z" fill="#00d3ff" stroke="#000000" stroke-width="4" stroke-linecap="butt"/><path d="M177.98434,199.30499l-3.21394,-10.83277" fill="none" stroke="#000000" stroke-width="4" stroke-linecap="round"/><path d="M191.2184,203.31028c0.05202,5.14296 -3.95919,9.35314 -8.95928,9.40372c-5.00009,0.05058 -9.09565,-4.07761 -9.14767,-9.22057c-0.05202,-5.14296 3.95919,-9.35314 8.95928,-9.40372c5.0001,-0.05058 9.09565,4.07761 9.14767,9.22057z" fill="#858585" stroke="#000000" stroke-width="4" stroke-linecap="butt"/><path d="M182.06562,202.10938c0.01541,1.52384 -1.20741,2.77164 -2.73125,2.78706c-1.52384,0.01541 -2.77164,-1.20741 -2.78706,-2.73125c-0.01541,-1.52384 1.20741,-2.77165 2.73125,-2.78706c1.52384,-0.01541 2.77165,1.20741 2.78706,2.73125z" fill="#ff0000" stroke="#000000" stroke-width="4" stroke-linecap="butt"/><path d="M186.55012,202.15025c0.03998,3.95246 -3.17032,7.18936 -7.1704,7.22982c-4.00008,0.04046 -7.27519,-3.13084 -7.31517,-7.0833c-0.03998,-3.95246 3.17032,-7.18936 7.1704,-7.22982c4.00008,-0.04046 7.27519,3.13084 7.31517,7.0833z" fill="url(#color-7)" stroke="none" stroke-width="0" stroke-linecap="butt"/><path d="M188.79106,202.04135c0.01541,1.52384 -1.20741,2.77165 -2.73124,2.78707c-1.52384,0.01541 -2.77165,-1.20741 -2.78706,-2.73125c-0.01541,-1.52384 1.20741,-2.77165 2.73124,-2.78706c1.52384,-0.01541 2.77165,1.20741 2.78706,2.73124z" fill="#ff0000" stroke="#000000" stroke-width="4" stroke-linecap="butt"/><path d="M193.27556,202.08222c0.03998,3.95246 -3.17031,7.18936 -7.17039,7.22982c-4.00008,0.04046 -7.27519,-3.13084 -7.31517,-7.08329c-0.03998,-3.95246 3.17032,-7.18936 7.1704,-7.22982c4.00008,-0.04046 7.27519,3.13084 7.31517,7.0833z" fill="url(#color-8)" stroke="none" stroke-width="0" stroke-linecap="butt"/><path d="M177.29938,189.13318c0.0125,1.23629 -1.06309,2.24948 -2.4024,2.26303c-1.33931,0.01355 -2.43518,-0.97768 -2.44768,-2.21397c-0.0125,-1.23629 1.06309,-2.24948 2.4024,-2.26302c1.33931,-0.01355 2.43518,0.97768 2.44768,2.21397z" fill="#000000" stroke="#000000" stroke-width="4" stroke-linecap="butt"/><text transform="translate(167.64809,186.74335) scale(0.10099,0.10099)" font-size="40" xml:space="preserve" fill="#000000" fill-rule="nonzero" stroke="none" stroke-width="1" stroke-linecap="butt" stroke-linejoin="miter" stroke-miterlimit="10" stroke-dasharray="" stroke-dashoffset="0" font-family="Sans Serif" font-weight="normal" text-anchor="start" style="mix-blend-mode: normal"><tspan x="0" dy="0">keychain buddy</tspan></text><path d="M48.87012,33.34835v-35.44154h32.29118v35.44154z" fill="#00d3ff" stroke="#000000" stroke-width="4" stroke-linecap="butt"/><path d="M61.36271,15.1158l-3.21394,-10.83277" fill="none" stroke="#000000" stroke-width="4" stroke-linecap="round"/><path d="M74.59678,19.1211c0.05202,5.14296 -3.95918,9.35314 -8.95928,9.40372c-5.00009,0.05058 -9.09565,-4.07761 -9.14767,-9.22057c-0.05202,-5.14296 3.95919,-9.35314 8.95929,-9.40372c5.00009,-0.05058 9.09565,4.07761 9.14767,9.22057z" fill="#858585" stroke="#000000" stroke-width="4" stroke-linecap="butt"/><path d="M65.444,17.92019c0.01541,1.52384 -1.20741,2.77165 -2.73125,2.78706c-1.52384,0.01541 -2.77165,-1.2074 -2.78707,-2.73125c-0.01541,-1.52384 1.20741,-2.77165 2.73125,-2.78707c1.52384,-0.01541 2.77165,1.20741 2.78706,2.73125z" fill="#ff0000" stroke="#000000" stroke-width="4" stroke-linecap="butt"/><path d="M69.9285,17.96106c0.03997,3.95246 -3.17032,7.18936 -7.1704,7.22982c-4.00008,0.04047 -7.27519,-3.13083 -7.31517,-7.08329c-0.03997,-3.95245 3.17032,-7.18936 7.1704,-7.22982c4.00008,-0.04047 7.27519,3.13084 7.31517,7.0833z" fill="url(#color-9)" stroke="none" stroke-width="0" stroke-linecap="butt"/><path d="M72.16944,17.85216c0.01541,1.52384 -1.2074,2.77165 -2.73125,2.78707c-1.52384,0.01541 -2.77165,-1.20742 -2.78706,-2.73125c-0.01541,-1.52384 1.2074,-2.77165 2.73125,-2.78706c1.52383,-0.01541 2.77165,1.2074 2.78706,2.73125z" fill="#ff0000" stroke="#000000" stroke-width="4" stroke-linecap="butt"/><path d="M76.65394,17.89304c0.03998,3.95246 -3.17032,7.18936 -7.17039,7.22982c-4.00008,0.04047 -7.27519,-3.13083 -7.31517,-7.08329c-0.03997,-3.95245 3.17032,-7.18935 7.1704,-7.22982c4.00008,-0.04047 7.27519,3.13084 7.31517,7.0833z" fill="url(#color-10)" stroke="none" stroke-width="0" stroke-linecap="butt"/><path d="M60.67776,4.94399c0.0125,1.23629 -1.06309,2.24948 -2.4024,2.26302c-1.33931,0.01354 -2.43518,-0.97768 -2.44768,-2.21397c-0.0125,-1.23629 1.06308,-2.24948 2.40239,-2.26302c1.33931,-0.01354 2.43518,0.97768 2.44768,2.21397z" fill="#000000" stroke="#000000" stroke-width="4" stroke-linecap="butt"/><text transform="translate(51.02647,2.55417) scale(0.10099,0.10099)" font-size="40" xml:space="preserve" fill="#000000" fill-rule="nonzero" stroke="none" stroke-width="1" stroke-linecap="butt" stroke-linejoin="miter" stroke-miterlimit="10" stroke-dasharray="" stroke-dashoffset="0" font-family="Sans Serif" font-weight="normal" text-anchor="start" style="mix-blend-mode: normal"><tspan x="0" dy="0">keychain buddy</tspan></text><path d="M73.38964,162.97297v-35.44154h32.29118v35.44154z" fill="#00d3ff" stroke="#000000" stroke-width="4" stroke-linecap="butt"/><path d="M85.88223,144.74042l-3.21394,-10.83277" fill="none" stroke="#000000" stroke-width="4" stroke-linecap="round"/><path d="M99.1163,148.74572c0.05202,5.14296 -3.95918,9.35314 -8.95928,9.40372c-5.00009,0.05057 -9.09565,-4.07761 -9.14767,-9.22057c-0.05202,-5.14296 3.95918,-9.35315 8.95929,-9.40372c5.00009,-0.05058 9.09565,4.07761 9.14767,9.22057z" fill="#858585" stroke="#000000" stroke-width="4" stroke-linecap="butt"/><path d="M89.96352,147.54481c0.01541,1.52384 -1.20741,2.77164 -2.73125,2.78706c-1.52384,0.01541 -2.77165,-1.20741 -2.78707,-2.73125c-0.01541,-1.52384 1.20741,-2.77165 2.73125,-2.78706c1.52384,-0.01542 2.77164,1.20741 2.78706,2.73125z" fill="#ff0000" stroke="#000000" stroke-width="4" stroke-linecap="butt"/><path d="M94.44802,147.58568c0.03998,3.95246 -3.17031,7.18936 -7.17039,7.22982c-4.00007,0.04047 -7.27519,-3.13084 -7.31517,-7.08329c-0.03998,-3.95245 3.17031,-7.18935 7.17039,-7.22982c4.00007,-0.04046 7.27519,3.13084 7.31517,7.0833z" fill="url(#color-11)" stroke="none" stroke-width="0" stroke-linecap="butt"/><path d="M96.68896,147.47678c0.01541,1.52384 -1.2074,2.77165 -2.73125,2.78706c-1.52384,0.01541 -2.77165,-1.20741 -2.78707,-2.73125c-0.01541,-1.52384 1.2074,-2.77164 2.73125,-2.78706c1.52384,-0.01541 2.77165,1.2074 2.78707,2.73125z" fill="#ff0000" stroke="#000000" stroke-width="4" stroke-linecap="butt"/><path d="M101.17346,147.51766c0.03998,3.95246 -3.17032,7.18936 -7.17039,7.22982c-4.00008,0.04047 -7.27519,-3.13084 -7.31517,-7.0833c-0.03997,-3.95245 3.17032,-7.18935 7.1704,-7.22982c4.00008,-0.04047 7.27519,3.13085 7.31517,7.0833z" fill="url(#color-12)" stroke="none" stroke-width="0" stroke-linecap="butt"/><path d="M85.19728,134.56861c0.0125,1.23629 -1.06309,2.24948 -2.4024,2.26302c-1.33931,0.01355 -2.43518,-0.97768 -2.44768,-2.21396c-0.0125,-1.23629 1.06309,-2.24948 2.40239,-2.26302c1.33931,-0.01355 2.43518,0.97768 2.44768,2.21397z" fill="#000000" stroke="#000000" stroke-width="4" stroke-linecap="butt"/><text transform="translate(75.54599,132.17879) scale(0.10099,0.10099)" font-size="40" xml:space="preserve" fill="#000000" fill-rule="nonzero" stroke="none" stroke-width="1" stroke-linecap="butt" stroke-linejoin="miter" stroke-miterlimit="10" stroke-dasharray="" stroke-dashoffset="0" font-family="Sans Serif" font-weight="normal" text-anchor="start" style="mix-blend-mode: normal"><tspan x="0" dy="0">keychain buddy</tspan></text></g></g></svg>